<svg xmlns="http://www.w3.org/2000/svg" xmlns:xlink="http://www.w3.org/1999/xlink" width="500" zoomAndPan="magnify" viewBox="0 0 375 374.999991" height="500" preserveAspectRatio="xMidYMid meet" version="1.0"><defs><g/><clipPath id="fdf6c72074"><path d="M 143.078125 115.0625 L 152.535156 115.0625 L 152.535156 124.8125 L 143.078125 124.8125 Z M 143.078125 115.0625 " clip-rule="nonzero"/></clipPath></defs><g fill="#ffffff" fill-opacity="1"><g transform="translate(68.364949, 197.56383)"><g><path d="M 53.699219 -14.476562 L 65.101562 -14.476562 L 65.101562 -59.324219 C 65.101562 -59.625 64.800781 -60 64.273438 -60 L 54.375 -60 C 54.074219 -60 53.699219 -59.773438 53.550781 -59.550781 L 33.074219 -15.601562 L 11.550781 -59.550781 C 11.476562 -59.773438 11.023438 -60 10.800781 -60 L 0.75 -60 C 0.226562 -60 0 -59.625 0 -59.324219 L 0 -0.675781 C 0 -0.375 0.226562 0 0.75 0 L 10.648438 0 C 11.101562 0 11.476562 -0.375 11.476562 -0.675781 L 11.476562 -34.351562 L 27.75 -2.851562 C 27.824219 -2.625 28.273438 -2.398438 28.5 -2.398438 L 37.726562 -2.398438 C 37.949219 -2.398438 38.324219 -2.625 38.398438 -2.851562 L 53.699219 -33.523438 Z M 53.699219 -14.476562 "/></g></g></g><g fill="#ffffff" fill-opacity="1"><g transform="translate(136.764885, 197.56383)"><g><path d="M 34.5 -29.851562 C 34.5 -33 32.023438 -35.550781 28.875 -35.550781 C 25.726562 -35.550781 23.25 -33 23.25 -29.851562 C 23.25 -26.773438 25.726562 -24.226562 28.875 -24.226562 C 32.023438 -24.226562 34.5 -26.773438 34.5 -29.851562 Z M 57.75 -30.074219 C 57.75 -45 48.074219 -60 28.949219 -60 C 9.523438 -60 0 -45 0 -30.074219 C 0 -15.074219 9.523438 0 28.949219 0 C 48.074219 0 57.75 -15.074219 57.75 -30.074219 Z M 46.5 -29.851562 C 46.5 -20.175781 40.574219 -10.5 28.949219 -10.5 C 17.175781 -10.5 11.324219 -20.175781 11.324219 -29.851562 C 11.324219 -39.675781 17.175781 -49.425781 28.949219 -49.425781 C 40.574219 -49.425781 46.5 -39.675781 46.5 -29.851562 Z M 46.5 -29.851562 "/></g></g></g><g fill="#ffffff" fill-opacity="1"><g transform="translate(197.364827, 197.56383)"><g><path d="M 34.5 -29.851562 C 34.5 -33 32.023438 -35.550781 28.875 -35.550781 C 25.726562 -35.550781 23.25 -33 23.25 -29.851562 C 23.25 -26.773438 25.726562 -24.226562 28.875 -24.226562 C 32.023438 -24.226562 34.5 -26.773438 34.5 -29.851562 Z M 57.75 -30.074219 C 57.75 -45 48.074219 -60 28.949219 -60 C 9.523438 -60 0 -45 0 -30.074219 C 0 -15.074219 9.523438 0 28.949219 0 C 48.074219 0 57.75 -15.074219 57.75 -30.074219 Z M 46.5 -29.851562 C 46.5 -20.175781 40.574219 -10.5 28.949219 -10.5 C 17.175781 -10.5 11.324219 -20.175781 11.324219 -29.851562 C 11.324219 -39.675781 17.175781 -49.425781 28.949219 -49.425781 C 40.574219 -49.425781 46.5 -39.675781 46.5 -29.851562 Z M 46.5 -29.851562 "/></g></g></g><g fill="#ffffff" fill-opacity="1"><g transform="translate(257.964768, 197.56383)"><g><path d="M 49.648438 -60 L 39.976562 -60 C 39.449219 -60 39.074219 -59.625 39.074219 -59.324219 L 39.074219 -20.25 L 11.398438 -59.773438 C 11.324219 -59.925781 10.875 -60 10.726562 -60 L 0.75 -60 C 0.375 -60 0 -59.625 0 -59.324219 L 0 -14.398438 L 11.476562 -14.398438 L 11.476562 -39.75 L 39.074219 -0.226562 C 39.148438 -0.0742188 39.601562 0 39.75 0 L 49.648438 0 C 50.175781 0 50.476562 -0.375 50.476562 -0.675781 L 50.476562 -59.324219 C 50.476562 -59.625 50.175781 -60 49.648438 -60 Z M 49.648438 -60 "/></g></g></g><g fill="#ffffff" fill-opacity="1"><g transform="translate(64.640544, 125.113828)"><g><path d="M 2.90625 -9.34375 C 3.8125 -9.34375 4.265625 -8.941406 4.265625 -8.140625 L 4.265625 -1.21875 C 4.265625 -0.40625 3.8125 0 2.90625 0 L 0.640625 0 L 0.640625 -9.34375 Z M 3.078125 -8.0625 C 3.078125 -8.21875 3.039062 -8.332031 2.96875 -8.40625 C 2.90625 -8.476562 2.785156 -8.515625 2.609375 -8.515625 L 1.796875 -8.515625 L 1.796875 -0.828125 L 2.609375 -0.828125 C 2.785156 -0.828125 2.90625 -0.863281 2.96875 -0.9375 C 3.039062 -1.007812 3.078125 -1.125 3.078125 -1.28125 Z M 3.078125 -8.0625 "/></g></g></g><g fill="#ffffff" fill-opacity="1"><g transform="translate(69.428557, 125.113828)"><g><path d="M 1.734375 -4.296875 L 1.734375 -0.890625 L 3.796875 -0.890625 L 3.796875 0 L 0.578125 0 L 0.578125 -9.34375 L 3.703125 -9.34375 L 3.703125 -8.453125 L 1.734375 -8.453125 L 1.734375 -5.1875 L 3.40625 -5.1875 L 3.40625 -4.296875 Z M 1.734375 -4.296875 "/></g></g></g><g fill="#ffffff" fill-opacity="1"><g transform="translate(73.424571, 125.113828)"><g><path d="M 2.09375 -1.78125 L 2.90625 -9.34375 L 4.109375 -9.34375 L 2.8125 0 L 1.375 0 L 0.078125 -9.34375 L 1.28125 -9.34375 Z M 2.09375 -1.78125 "/></g></g></g><g fill="#ffffff" fill-opacity="1"><g transform="translate(77.612582, 125.113828)"><g><path d="M 1.734375 -4.296875 L 1.734375 -0.890625 L 3.796875 -0.890625 L 3.796875 0 L 0.578125 0 L 0.578125 -9.34375 L 3.703125 -9.34375 L 3.703125 -8.453125 L 1.734375 -8.453125 L 1.734375 -5.1875 L 3.40625 -5.1875 L 3.40625 -4.296875 Z M 1.734375 -4.296875 "/></g></g></g><g fill="#ffffff" fill-opacity="1"><g transform="translate(81.608595, 125.113828)"><g><path d="M 1.75 -9.34375 L 1.75 -0.890625 L 3.5625 -0.890625 L 3.5625 0 L 0.578125 0 L 0.578125 -9.34375 Z M 1.75 -9.34375 "/></g></g></g><g fill="#ffffff" fill-opacity="1"><g transform="translate(85.208597, 125.113828)"><g><path d="M 2.75 -9.34375 C 3.65625 -9.34375 4.109375 -8.941406 4.109375 -8.140625 L 4.109375 -1.21875 C 4.109375 -0.40625 3.65625 0 2.75 0 L 1.875 0 C 1.40625 0 1.0625 -0.0976562 0.84375 -0.296875 C 0.632812 -0.503906 0.53125 -0.8125 0.53125 -1.21875 L 0.53125 -8.140625 C 0.53125 -8.941406 0.976562 -9.34375 1.875 -9.34375 Z M 2.921875 -8 C 2.921875 -8.164062 2.882812 -8.28125 2.8125 -8.34375 C 2.75 -8.414062 2.628906 -8.453125 2.453125 -8.453125 L 2.15625 -8.453125 C 2 -8.453125 1.882812 -8.414062 1.8125 -8.34375 C 1.738281 -8.28125 1.703125 -8.164062 1.703125 -8 L 1.703125 -1.328125 C 1.703125 -1.171875 1.738281 -1.054688 1.8125 -0.984375 C 1.882812 -0.921875 2 -0.890625 2.15625 -0.890625 L 2.453125 -0.890625 C 2.628906 -0.890625 2.75 -0.921875 2.8125 -0.984375 C 2.882812 -1.054688 2.921875 -1.171875 2.921875 -1.328125 Z M 2.921875 -8 "/></g></g></g><g fill="#ffffff" fill-opacity="1"><g transform="translate(89.828611, 125.113828)"><g><path d="M 2.859375 -9.34375 C 3.753906 -9.34375 4.203125 -8.941406 4.203125 -8.140625 L 4.203125 -3.96875 C 4.203125 -3.164062 3.753906 -2.765625 2.859375 -2.765625 L 1.75 -2.765625 L 1.75 0 L 0.578125 0 L 0.578125 -9.34375 Z M 3.03125 -8 C 3.03125 -8.164062 2.992188 -8.28125 2.921875 -8.34375 C 2.847656 -8.414062 2.726562 -8.453125 2.5625 -8.453125 L 1.75 -8.453125 L 1.75 -3.640625 L 2.5625 -3.640625 C 2.726562 -3.640625 2.847656 -3.675781 2.921875 -3.75 C 2.992188 -3.820312 3.03125 -3.941406 3.03125 -4.109375 Z M 3.03125 -8 "/></g></g></g><g fill="#ffffff" fill-opacity="1"><g transform="translate(94.376619, 125.113828)"><g><path d="M 2.875 -3.265625 L 3.796875 -9.34375 L 5.203125 -9.34375 L 5.203125 0 L 4.140625 0 L 4.140625 -7.25 L 3.375 -2.21875 L 2.40625 -2.21875 L 1.640625 -7.21875 L 1.640625 0 L 0.578125 0 L 0.578125 -9.34375 L 1.96875 -9.34375 Z M 2.875 -3.265625 "/></g></g></g><g fill="#ffffff" fill-opacity="1"><g transform="translate(100.196626, 125.113828)"><g><path d="M 1.734375 -4.296875 L 1.734375 -0.890625 L 3.796875 -0.890625 L 3.796875 0 L 0.578125 0 L 0.578125 -9.34375 L 3.703125 -9.34375 L 3.703125 -8.453125 L 1.734375 -8.453125 L 1.734375 -5.1875 L 3.40625 -5.1875 L 3.40625 -4.296875 Z M 1.734375 -4.296875 "/></g></g></g><g fill="#ffffff" fill-opacity="1"><g transform="translate(104.192639, 125.113828)"><g><path d="M 1.671875 0 L 0.578125 0 L 0.578125 -9.34375 L 1.828125 -9.34375 L 3.125 -2.0625 L 3.125 -9.34375 L 4.21875 -9.34375 L 4.21875 0 L 3.03125 0 L 1.671875 -7.359375 Z M 1.671875 0 "/></g></g></g><g fill="#ffffff" fill-opacity="1"><g transform="translate(108.992646, 125.113828)"><g><path d="M 3.46875 -9.34375 L 3.46875 -8.453125 L 2.359375 -8.453125 L 2.359375 0 L 1.171875 0 L 1.171875 -8.453125 L 0.0625 -8.453125 L 0.0625 -9.34375 Z M 3.46875 -9.34375 "/></g></g></g><g fill="#ffffff" fill-opacity="1"><g transform="translate(112.520653, 125.113828)"><g/></g></g><g fill="#ffffff" fill-opacity="1"><g transform="translate(114.356651, 125.113828)"><g><path d="M 1.671875 0 C 1.234375 0 0.914062 -0.0859375 0.71875 -0.265625 C 0.53125 -0.453125 0.4375 -0.722656 0.4375 -1.078125 L 0.4375 -2.78125 L 1.625 -2.78125 L 1.625 -1.21875 C 1.625 -1.082031 1.644531 -0.992188 1.6875 -0.953125 C 1.726562 -0.910156 1.8125 -0.890625 1.9375 -0.890625 L 2.515625 -0.890625 C 2.628906 -0.890625 2.707031 -0.910156 2.75 -0.953125 C 2.789062 -0.992188 2.8125 -1.082031 2.8125 -1.21875 L 2.8125 -3.8125 C 2.8125 -3.9375 2.789062 -4.019531 2.75 -4.0625 C 2.707031 -4.101562 2.628906 -4.125 2.515625 -4.125 L 1.703125 -4.125 C 1.242188 -4.125 0.914062 -4.226562 0.71875 -4.4375 C 0.519531 -4.644531 0.421875 -4.953125 0.421875 -5.359375 L 0.421875 -8.140625 C 0.421875 -8.941406 0.867188 -9.34375 1.765625 -9.34375 L 2.640625 -9.34375 C 3.535156 -9.34375 3.984375 -8.941406 3.984375 -8.140625 L 3.984375 -6.234375 L 2.8125 -6.234375 L 2.8125 -8 C 2.8125 -8.164062 2.773438 -8.28125 2.703125 -8.34375 C 2.640625 -8.414062 2.523438 -8.453125 2.359375 -8.453125 L 2.046875 -8.453125 C 1.878906 -8.453125 1.757812 -8.414062 1.6875 -8.34375 C 1.625 -8.28125 1.59375 -8.164062 1.59375 -8 L 1.59375 -5.421875 C 1.59375 -5.273438 1.628906 -5.164062 1.703125 -5.09375 C 1.773438 -5.019531 1.890625 -4.984375 2.046875 -4.984375 L 2.828125 -4.984375 C 3.242188 -4.984375 3.539062 -4.890625 3.71875 -4.703125 C 3.90625 -4.523438 4 -4.257812 4 -3.90625 L 4 -1.078125 C 4 -0.722656 3.898438 -0.453125 3.703125 -0.265625 C 3.515625 -0.0859375 3.207031 0 2.78125 0 Z M 1.671875 0 "/></g></g></g><g fill="#ffffff" fill-opacity="1"><g transform="translate(118.772663, 125.113828)"><g><path d="M 3.46875 -9.34375 L 3.46875 -8.453125 L 2.359375 -8.453125 L 2.359375 0 L 1.171875 0 L 1.171875 -8.453125 L 0.0625 -8.453125 L 0.0625 -9.34375 Z M 3.46875 -9.34375 "/></g></g></g><g fill="#ffffff" fill-opacity="1"><g transform="translate(122.30067, 125.113828)"><g><path d="M 3.09375 -9.34375 L 4.265625 -9.34375 L 4.265625 -1.21875 C 4.265625 -0.40625 3.816406 0 2.921875 0 L 1.90625 0 C 1 0 0.546875 -0.40625 0.546875 -1.21875 L 0.546875 -9.34375 L 1.734375 -9.34375 L 1.734375 -1.328125 C 1.734375 -1.179688 1.765625 -1.070312 1.828125 -1 C 1.898438 -0.925781 2.015625 -0.890625 2.171875 -0.890625 L 2.65625 -0.890625 C 2.8125 -0.890625 2.921875 -0.925781 2.984375 -1 C 3.054688 -1.070312 3.09375 -1.179688 3.09375 -1.328125 Z M 3.09375 -9.34375 "/></g></g></g><g fill="#ffffff" fill-opacity="1"><g transform="translate(127.124675, 125.113828)"><g><path d="M 2.90625 -9.34375 C 3.8125 -9.34375 4.265625 -8.941406 4.265625 -8.140625 L 4.265625 -1.21875 C 4.265625 -0.40625 3.8125 0 2.90625 0 L 0.640625 0 L 0.640625 -9.34375 Z M 3.078125 -8.0625 C 3.078125 -8.21875 3.039062 -8.332031 2.96875 -8.40625 C 2.90625 -8.476562 2.785156 -8.515625 2.609375 -8.515625 L 1.796875 -8.515625 L 1.796875 -0.828125 L 2.609375 -0.828125 C 2.785156 -0.828125 2.90625 -0.863281 2.96875 -0.9375 C 3.039062 -1.007812 3.078125 -1.125 3.078125 -1.28125 Z M 3.078125 -8.0625 "/></g></g></g><g fill="#ffffff" fill-opacity="1"><g transform="translate(131.912688, 125.113828)"><g><path d="M 1.8125 0 L 0.640625 0 L 0.640625 -9.34375 L 1.8125 -9.34375 Z M 1.8125 0 "/></g></g></g><g fill="#ffffff" fill-opacity="1"><g transform="translate(134.348689, 125.113828)"><g><path d="M 2.75 -9.34375 C 3.65625 -9.34375 4.109375 -8.941406 4.109375 -8.140625 L 4.109375 -1.21875 C 4.109375 -0.40625 3.65625 0 2.75 0 L 1.875 0 C 1.40625 0 1.0625 -0.0976562 0.84375 -0.296875 C 0.632812 -0.503906 0.53125 -0.8125 0.53125 -1.21875 L 0.53125 -8.140625 C 0.53125 -8.941406 0.976562 -9.34375 1.875 -9.34375 Z M 2.921875 -8 C 2.921875 -8.164062 2.882812 -8.28125 2.8125 -8.34375 C 2.75 -8.414062 2.628906 -8.453125 2.453125 -8.453125 L 2.15625 -8.453125 C 2 -8.453125 1.882812 -8.414062 1.8125 -8.34375 C 1.738281 -8.28125 1.703125 -8.164062 1.703125 -8 L 1.703125 -1.328125 C 1.703125 -1.171875 1.738281 -1.054688 1.8125 -0.984375 C 1.882812 -0.921875 2 -0.890625 2.15625 -0.890625 L 2.453125 -0.890625 C 2.628906 -0.890625 2.75 -0.921875 2.8125 -0.984375 C 2.882812 -1.054688 2.921875 -1.171875 2.921875 -1.328125 Z M 2.921875 -8 "/></g></g></g><g clip-path="url(#fdf6c72074)"><path fill="#d7e626" d="M 147.953125 119.683594 L 144.519531 115.070312 L 143.078125 115.070312 L 146.511719 119.683594 Z M 146.507812 120.195312 L 147.953125 120.195312 L 144.519531 124.804688 L 143.078125 124.804688 Z M 148.945312 119.683594 L 145.515625 115.070312 L 146.957031 115.070312 L 150.390625 119.683594 Z M 148.945312 120.195312 L 150.390625 120.195312 L 146.957031 124.804688 L 145.515625 124.804688 Z M 151.382812 119.683594 L 147.953125 115.070312 L 149.394531 115.070312 L 152.828125 119.683594 Z M 151.382812 120.195312 L 152.828125 120.195312 L 149.394531 124.804688 L 147.953125 124.804688 Z M 151.382812 120.195312 " fill-opacity="1" fill-rule="nonzero"/></g><g fill="#ffffff" fill-opacity="1"><g transform="translate(79.496344, 279.562686)"><g><path d="M 34.726562 -50.039062 C 34.726562 -42.203125 24.21875 -42.203125 24.21875 -42.203125 L 13.535156 -42.203125 L 13.535156 -58.496094 L 24.21875 -58.496094 C 24.21875 -58.496094 34.726562 -58.585938 34.726562 -50.039062 Z M 48.347656 -50.839844 C 48.347656 -71.765625 24.21875 -71.230469 24.21875 -71.230469 L 0.980469 -71.230469 C 0.445312 -71.230469 0 -70.785156 0 -70.429688 L 0 -28.9375 L 24.21875 -28.9375 C 24.21875 -28.9375 35.703125 -29.472656 35.703125 -21.101562 C 35.703125 -14.246094 28.671875 -13 24.21875 -13 L 13.621094 -13 L 13.621094 0 L 24.21875 0 C 29.027344 0 49.328125 -0.890625 49.328125 -20.746094 C 49.328125 -20.746094 49.773438 -31.785156 38.464844 -35.613281 C 43.894531 -37.839844 48.347656 -42.558594 48.347656 -50.839844 Z M 48.347656 -50.839844 "/></g></g></g><g fill="#ffffff" fill-opacity="1"><g transform="translate(131.316166, 279.562686)"><g><path d="M 40.957031 -35.4375 C 40.957031 -39.175781 38.019531 -42.203125 34.28125 -42.203125 C 30.539062 -42.203125 27.601562 -39.175781 27.601562 -35.4375 C 27.601562 -31.785156 30.539062 -28.757812 34.28125 -28.757812 C 38.019531 -28.757812 40.957031 -31.785156 40.957031 -35.4375 Z M 68.558594 -35.703125 C 68.558594 -53.421875 57.074219 -71.230469 34.367188 -71.230469 C 11.308594 -71.230469 0 -53.421875 0 -35.703125 C 0 -17.898438 11.308594 0 34.367188 0 C 57.074219 0 68.558594 -17.898438 68.558594 -35.703125 Z M 55.203125 -35.4375 C 55.203125 -23.949219 48.167969 -12.464844 34.367188 -12.464844 C 20.390625 -12.464844 13.445312 -23.949219 13.445312 -35.4375 C 13.445312 -47.101562 20.390625 -58.675781 34.367188 -58.675781 C 48.167969 -58.675781 55.203125 -47.101562 55.203125 -35.4375 Z M 55.203125 -35.4375 "/></g></g></g><g fill="#ffffff" fill-opacity="1"><g transform="translate(203.258456, 279.562686)"><g><path d="M 73.992188 -58.140625 L 64.910156 -33.65625 L 50.839844 -70.695312 C 50.664062 -71.050781 50.304688 -71.230469 49.949219 -71.230469 L 37.839844 -71.230469 C 37.484375 -71.230469 37.128906 -71.050781 37.039062 -70.695312 L 22.882812 -33.65625 L 13.890625 -58.140625 L 0 -58.140625 L 22.082031 -0.535156 C 22.347656 0.179688 23.507812 0.179688 23.773438 -0.535156 L 43.894531 -53.332031 L 64.019531 -0.535156 C 64.285156 0.179688 65.441406 0.179688 65.710938 -0.535156 L 87.878906 -58.140625 Z M 73.992188 -58.140625 "/></g></g></g></svg>